Coordinates
version=1
nRows=10
nColumns=40
inDegrees=yes

Units are S.I. units (second, meters, Newtons, ...)
Angles are in degrees.

endheader
time	pelvis_tilt	pelvis_list	pelvis_rotation	pelvis_tx	pelvis_ty	pelvis_tz	hip_flexion_r	hip_adduction_r	hip_rotation_r	knee_angle_r	knee_angle_r_beta	ankle_angle_r	subtalar_angle_r	mtp_angle_r	hip_flexion_l	hip_adduction_l	hip_rotation_l	knee_angle_l	knee_angle_l_beta	ankle_angle_l	subtalar_angle_l	mtp_angle_l	lumbar_extension	lumbar_bending	lumbar_rotation	arm_flex_r	arm_add_r	arm_rot_r	elbow_flex_r	pro_sup_r	wrist_flex_r	wrist_dev_r	arm_flex_l	arm_add_l	arm_rot_l	elbow_flex_l	pro_sup_l	wrist_flex_l	wrist_dev_l
     12.62500000	     -3.03240147	     -3.68532032	      8.17602238	      0.94247036	      0.91931435	      0.50399625	      4.51861595	      4.78482298	    -11.18810940	     19.71676735	     19.71676735	     20.79185391	     -1.95830892	     -0.39668965	     29.95282187	     -6.58994746	      4.03545976	     24.29938860	     24.29938860	      6.06254363	     -9.40724831	      6.87092085	     -8.74051162	      4.13895647	      3.80295164	     46.54481968	    -14.60768645	     -5.06934618	     78.74636683	     44.63447974	      0.00000000	      0.00000000	    -18.78552341	     -8.36495015	     17.36374929	     32.97002231	     43.75119616	      0.00000000	      0.00000000
     12.64421429	     -3.26121292	     -3.75785395	      8.52971130	      0.94271402	      0.91829083	      0.50122914	      4.25059912	      4.75086615	    -11.34312141	     19.59247690	     19.59247690	     21.11811205	     -2.11081888	     -0.46701129	     29.78627684	     -6.36423858	      3.97970872	     24.22690842	     24.22690842	      6.10734891	     -9.30780070	      6.75274109	     -8.28978621	      4.05380789	      3.79770440	     47.18238595	    -14.69845611	     -5.15031985	     79.03491029	     44.63146062	      0.00000000	      0.00000000	    -18.57726700	     -8.44745537	     17.35046808	     33.01704676	     43.75806761	      0.00000000	      0.00000000
     12.66342857	     -3.18193042	     -3.80605298	      8.91839757	      0.94300325	      0.91790308	      0.49833034	      3.46315318	      4.76097032	    -11.62783422	     19.09386140	     19.09386140	     21.12180962	     -2.07262576	     -0.46553731	     29.21326091	     -6.27580864	      3.57029043	     24.03641998	     24.03641998	      5.74509664	     -8.69647228	      5.39773425	     -8.46708593	      3.96994455	      3.59087134	     48.03948374	    -14.64812367	     -5.64769086	     80.70644343	     44.60953430	      0.00000000	      0.00000000	    -17.96390774	     -8.54474958	     17.40459053	     32.89786944	     43.78866021	      0.00000000	      0.00000000
     12.68264286	     -3.39306228	     -3.87084486	      9.29940474	      0.94326143	      0.91684165	      0.49518297	      3.16171710	      4.71148842	    -11.74484337	     18.92804970	     18.92804970	     21.32798057	     -2.25858839	     -0.76029205	     28.98011849	     -6.03906937	      3.71028235	     23.87028799	     23.87028799	      4.38280702	     -9.15207149	      1.72381556	     -8.26699045	      3.88741218	      4.23203915	     47.72715700	    -15.26123013	     -6.93876020	     82.79923222	     44.65217743	      0.00000000	      0.00000000	    -16.71594558	     -8.66250048	     17.58833805	     32.02062212	     43.92929147	      0.00000000	      0.00000000
     12.70185714	     -3.49845046	     -3.86790731	      9.64596779	      0.94351597	      0.91611625	      0.49185157	      2.76147865	      4.57485390	    -11.93011671	     18.83250429	     18.83250429	     21.54003963	     -2.36168833	     -0.77553740	     28.89328458	     -5.78017501	      3.76742379	     24.32558090	     24.32558090	      4.55433981	     -9.07193382	      1.42028995	     -8.18569177	      3.75343432	      4.03817217	     48.13366658	    -15.23182035	     -7.09804399	     83.05358677	     44.65622751	      0.00000000	      0.00000000	    -16.05284793	     -8.77568095	     17.53174814	     32.10609320	     43.95798744	      0.00000000	      0.00000000
     12.72107143	     -3.63319723	     -3.91564870	      9.95044138	      0.94383645	      0.91551322	      0.48844151	      2.34825853	      4.47420363	    -12.20256050	     18.63556053	     18.63556053	     21.67082267	     -2.28274805	     -0.71819960	     28.92357122	     -5.60152448	      3.76647101	     24.91363283	     24.91363283	      4.76336014	     -8.84854089	      0.85729551	     -8.08114933	      3.69631833	      4.09329505	     48.00656104	    -15.17800506	     -7.99659012	     83.73317657	     44.68483039	      0.00000000	      0.00000000	    -15.02706723	     -8.78874322	     17.20033576	     31.85467102	     44.06617521	      0.00000000	      0.00000000
     12.74028571	     -3.78705670	     -3.83384943	     10.17030950	      0.94413779	      0.91511181	      0.48493330	      1.99602372	      4.21800011	    -12.33977573	     18.55719960	     18.55719960	     21.76247884	     -2.39513337	     -0.68991228	     28.89601169	     -5.24947440	      3.94803907	     25.43638030	     25.43638030	      4.99819099	     -8.97020908	      0.64383833	     -8.00546780	      3.47846079	      3.93718891	     47.96509667	    -15.08226691	     -8.03996814	     83.75343760	     44.68747816	      0.00000000	      0.00000000	    -14.12252550	     -8.92078553	     17.09084172	     32.06533981	     44.09866728	      0.00000000	      0.00000000
     12.75950000	     -3.93620145	     -3.80538268	     10.31471020	      0.94458411	      0.91482522	      0.48140771	      1.62620012	      4.01213708	    -12.42328559	     18.45658184	     18.45658184	     21.81568058	     -2.37533622	     -0.66170067	     28.89386036	     -4.95825533	      4.12077176	     26.01382983	     26.01382983	      5.39657078	     -9.23072501	      0.40575309	     -7.93574663	      3.37495671	      3.86660277	     47.77037596	    -14.99847425	     -8.14473920	     83.70439958	     44.69368755	      0.00000000	      0.00000000	    -13.23808180	     -9.05216055	     16.94244919	     32.28139306	     44.13600238	      0.00000000	      0.00000000
     12.77871429	     -4.04963027	     -3.94009691	     10.36851889	      0.94517690	      0.91465880	      0.47789127	      1.13341357	      3.95468716	    -12.73477186	     18.15509963	     18.15509963	     21.78486940	     -1.84039800	     -0.62346157	     28.99699636	     -4.79474116	      4.55137070	     26.83617776	     26.83617776	      5.89449208	     -9.87722530	      0.44013616	     -7.86130296	      3.43828526	      4.34947627	     47.22184504	    -15.30682014	     -9.10300214	     83.53249369	     44.73837878	      0.00000000	      0.00000000	    -12.12509632	     -9.10607891	     16.27746471	     32.51171893	     44.26443759	      0.00000000	      0.00000000
     12.79792857	     -4.22524783	     -3.86286051	     10.30068649	      0.94584951	      0.91475419	      0.47442240	      0.76525180	      3.60630089	    -13.00885159	     18.06269014	     18.06269014	     21.77224724	     -1.23664469	     -0.63087093	     28.96569126	     -4.45502188	      4.78416685	     27.44757331	     27.44757331	      6.84391175	    -10.22404791	      1.73970841	     -7.82058318	      3.22075480	      4.80038406	     46.24408356	    -15.04740370	    -10.88212532	     84.02914679	     44.83078527	      0.00000000	      0.00000000	    -10.89972614	     -8.68456707	     12.86326886	     32.24117739	     44.85537839	      0.00000000	      0.00000000
